<svg width="290" height="35" viewBox="0 0 290 35" fill="none" xmlns="http://www.w3.org/2000/svg">
<path d="M15.055 33.72C12.595 33.72 10.21 33.135 7.9 31.965C5.62 30.765 3.745 28.935 2.275 26.475C0.835 23.985 0.115 20.925 0.115 17.295C0.115 13.665 0.835 10.62 2.275 8.16C3.745 5.67 5.62 3.825 7.9 2.625C10.21 1.395 12.595 0.779999 15.055 0.779999C17.365 0.779999 19.54 1.245 21.58 2.175C23.62 3.075 25.345 4.485 26.755 6.405C28.195 8.295 29.095 10.65 29.455 13.47L23.785 13.92C23.275 11.16 22.315 9.09 20.905 7.71C19.525 6.3 17.575 5.595 15.055 5.595C13.165 5.595 11.515 6.09 10.105 7.08C8.695 8.07 7.6 9.45 6.82 11.22C6.07 12.99 5.695 15.015 5.695 17.295C5.695 19.605 6.07 21.645 6.82 23.415C7.6 25.155 8.695 26.52 10.105 27.51C11.515 28.47 13.165 28.95 15.055 28.95C17.635 28.95 19.615 28.29 20.995 26.97C22.375 25.62 23.305 23.58 23.785 20.85L29.455 21.3C29.095 24.12 28.195 26.46 26.755 28.32C25.345 30.18 23.62 31.545 21.58 32.415C19.54 33.285 17.365 33.72 15.055 33.72ZM45.4687 33.72C43.4887 33.72 41.6287 33.285 39.8887 32.415C38.1787 31.545 36.7837 30.21 35.7037 28.41C34.6537 26.61 34.1287 24.405 34.1287 21.795C34.1287 19.185 34.6537 16.98 35.7037 15.18C36.7837 13.38 38.1787 12.03 39.8887 11.13C41.6287 10.23 43.4887 9.78 45.4687 9.78C47.4487 9.78 49.2937 10.23 51.0037 11.13C52.7437 12.03 54.1387 13.38 55.1887 15.18C56.2687 16.98 56.8087 19.185 56.8087 21.795C56.8087 24.405 56.2837 26.61 55.2337 28.41C54.1837 30.21 52.7887 31.545 51.0487 32.415C49.3387 33.285 47.4787 33.72 45.4687 33.72ZM45.4687 29.22C47.3287 29.22 48.7537 28.575 49.7437 27.285C50.7337 25.965 51.2287 24.135 51.2287 21.795C51.2287 19.425 50.7337 17.58 49.7437 16.26C48.7537 14.94 47.3287 14.28 45.4687 14.28C43.6387 14.28 42.2137 14.94 41.1937 16.26C40.2037 17.58 39.7087 19.425 39.7087 21.795C39.7087 24.135 40.2037 25.965 41.1937 27.285C42.2137 28.575 43.6387 29.22 45.4687 29.22ZM75.9288 18.69C75.9288 16.98 75.5838 15.825 74.8938 15.225C74.2038 14.595 73.3038 14.28 72.1938 14.28C70.6938 14.28 69.4638 14.925 68.5038 16.215C67.5438 17.475 67.0638 19.47 67.0638 22.2L66.2088 19.86C66.2088 17.82 66.5088 16.05 67.1088 14.55C67.7088 13.02 68.6238 11.85 69.8538 11.04C71.0838 10.2 72.5988 9.78 74.3988 9.78C76.6188 9.78 78.3588 10.5 79.6188 11.94C80.8788 13.38 81.5088 15.465 81.5088 18.195V33H75.9288V18.69ZM61.4838 10.5H67.0638V33H61.4838V10.5ZM96.6439 33.72C94.7539 33.72 92.9839 33.405 91.3339 32.775C89.6839 32.145 88.3339 31.17 87.2839 29.85C86.2639 28.53 85.7539 26.895 85.7539 24.945L91.1539 24.495C91.1539 25.575 91.4239 26.475 91.9639 27.195C92.5039 27.915 93.1939 28.44 94.0339 28.77C94.8739 29.07 95.7439 29.22 96.6439 29.22C97.9639 29.22 99.0289 28.98 99.8389 28.5C100.679 28.02 101.099 27.345 101.099 26.475C101.099 25.515 100.694 24.84 99.8839 24.45C99.0739 24.03 97.9939 23.73 96.6439 23.55L93.7189 23.19C91.7689 22.95 90.1489 22.26 88.8589 21.12C87.5989 19.95 86.9689 18.405 86.9689 16.485C86.9689 15.075 87.3889 13.875 88.2289 12.885C89.0689 11.865 90.1939 11.1 91.6039 10.59C93.0439 10.05 94.6039 9.78 96.2839 9.78C97.9939 9.78 99.5539 10.065 100.964 10.635C102.374 11.175 103.499 11.985 104.339 13.065C105.209 14.145 105.644 15.435 105.644 16.935L100.244 17.385C100.244 16.365 99.8689 15.6 99.1189 15.09C98.3989 14.55 97.4539 14.28 96.2839 14.28C95.2039 14.28 94.3189 14.49 93.6289 14.91C92.9389 15.33 92.5939 15.9 92.5939 16.62C92.5939 17.28 92.8489 17.805 93.3589 18.195C93.8989 18.585 94.7089 18.855 95.7889 19.005L98.4889 19.32C100.829 19.62 102.779 20.295 104.339 21.345C105.899 22.395 106.679 24.045 106.679 26.295C106.679 27.885 106.229 29.25 105.329 30.39C104.429 31.5 103.214 32.34 101.684 32.91C100.184 33.45 98.5039 33.72 96.6439 33.72ZM118.032 33.72C115.812 33.72 114.072 33 112.812 31.56C111.552 30.12 110.922 28.035 110.922 25.305V10.5H116.502V24.81C116.502 26.52 116.847 27.69 117.537 28.32C118.227 28.92 119.127 29.22 120.237 29.22C121.737 29.22 122.967 28.59 123.927 27.33C124.887 26.04 125.367 24.03 125.367 21.3L126.222 23.64C126.222 25.68 125.922 27.465 125.322 28.995C124.722 30.495 123.807 31.665 122.577 32.505C121.347 33.315 119.832 33.72 118.032 33.72ZM125.367 10.5H130.947V33H125.367V10.5ZM137.432 1.05H143.012V33H137.432V1.05ZM158.236 33C155.926 33 154.171 32.445 152.971 31.335C151.801 30.225 151.216 28.425 151.216 25.935V3.705L156.526 3.255V25.26C156.526 26.22 156.616 26.925 156.796 27.375C156.976 27.825 157.276 28.125 157.696 28.275C158.146 28.425 158.806 28.5 159.676 28.5H162.376V33H158.236ZM147.391 10.5H162.376V15H147.391V10.5ZM173.565 33.675C172.245 33.675 171.015 33.42 169.875 32.91C168.735 32.37 167.82 31.605 167.13 30.615C166.47 29.595 166.14 28.41 166.14 27.06C166.14 25.41 166.56 24.075 167.4 23.055C168.27 22.035 169.395 21.27 170.775 20.76C172.185 20.22 173.94 19.77 176.04 19.41L176.85 19.275C177.9 19.125 178.68 18.975 179.19 18.825C179.73 18.645 180.135 18.375 180.405 18.015C180.705 17.625 180.75 17.07 180.54 16.35C180.33 15.6 179.85 15.075 179.1 14.775C178.38 14.445 177.465 14.28 176.355 14.28C174.945 14.28 173.88 14.61 173.16 15.27C172.44 15.9 172.05 16.695 171.99 17.655L166.41 17.205C166.41 16.125 166.71 15.03 167.31 13.92C167.91 12.81 168.945 11.85 170.415 11.04C171.915 10.2 173.895 9.78 176.355 9.78C179.535 9.78 181.965 10.515 183.645 11.985C185.325 13.425 186.165 15.69 186.165 18.78V33H180.81V27.195L181.215 26.745C181.005 27.975 180.57 29.115 179.91 30.165C179.28 31.215 178.425 32.07 177.345 32.73C176.265 33.36 175.005 33.675 173.565 33.675ZM174.915 29.175C175.935 29.175 176.895 28.92 177.795 28.41C178.695 27.9 179.415 27.15 179.955 26.16C180.525 25.17 180.81 24 180.81 22.65V20.4L181.215 20.22C181.065 21.03 180.555 21.66 179.685 22.11C178.845 22.56 177.525 22.95 175.725 23.28C174.405 23.52 173.4 23.925 172.71 24.495C172.05 25.065 171.72 25.755 171.72 26.565C171.72 27.375 172.02 28.02 172.62 28.5C173.22 28.95 173.985 29.175 174.915 29.175ZM206.183 18.69C206.183 16.98 205.838 15.825 205.148 15.225C204.458 14.595 203.558 14.28 202.448 14.28C200.948 14.28 199.718 14.925 198.758 16.215C197.798 17.475 197.318 19.47 197.318 22.2L196.463 19.86C196.463 17.82 196.763 16.05 197.363 14.55C197.963 13.02 198.878 11.85 200.108 11.04C201.338 10.2 202.853 9.78 204.653 9.78C206.873 9.78 208.613 10.5 209.873 11.94C211.133 13.38 211.763 15.465 211.763 18.195V33H206.183V18.69ZM191.738 10.5H197.318V33H191.738V10.5ZM226.088 33C223.778 33 222.023 32.445 220.823 31.335C219.653 30.225 219.068 28.425 219.068 25.935V3.705L224.378 3.255V25.26C224.378 26.22 224.468 26.925 224.648 27.375C224.828 27.825 225.128 28.125 225.548 28.275C225.998 28.425 226.658 28.5 227.528 28.5H230.228V33H226.088ZM215.243 10.5H230.228V15H215.243V10.5Z" fill="#191919"/>
<path d="M249.5 34.4V34.85H249.05V32.15H248.6V21.8H248.15V11.9H247.7V5.15H247.25V4.25H246.8V3.8H245.9V3.35H245V2.45H245.45V2H256.25V2.9H255.8V3.35H254.45V3.8H253.55V4.25H253.1V4.7H252.65V16.85H253.1V25.4H252.65V26.3H252.2V27.65H252.65V26.75H253.1V26.3H253.55V25.85H254V24.95H254.45V24.5H254.9V24.05H255.35V23.15H255.8V22.7H256.25V21.8H256.7V21.35H257.15V20.9H257.6V20H258.05V19.55H258.5V19.1H258.95V18.2H259.4V17.75H259.85V17.3H260.3V16.4H260.75V15.95H261.2V15.05H261.65V14.6H262.1V14.15H262.55V13.25H263V12.8H263.45V11H263V5.15H262.55V4.25H262.1V3.8H261.2V3.35H260.3V2.45H260.75V2H271.55V2.9H271.1V3.35H269.75V3.8H268.85V4.25H268.4V4.7H267.95V24.95H267.5V25.4H267.05V27.2H267.5V26.75H267.95V25.85H268.4V25.4H268.85V24.5H269.3V24.05H269.75V23.6H270.2V22.7H270.65V22.25H271.1V21.8H271.55V20.9H272V20.45H272.45V19.55H272.9V19.1H273.35V18.65H273.8V17.75H274.25V17.3H274.7V16.4H275.15V15.95H275.6V15.5H276.05V14.6H276.5V14.15H276.95V13.25H277.4V12.8H277.85V12.35H278.3V11.45H278.75V11H279.2V10.1H279.65V9.65H280.1V9.2H280.55V8.3H281V7.85H281.45V6.95H281.9V6.5H282.35V3.8H281.45V3.35H280.1V2.45H280.55V2H289.55V2.45H289.1V3.35H288.2V3.8H287.3V4.25H286.85V4.7H285.95V5.15H285.5V5.6H285.05V6.05H284.6V6.95H284.15V7.4H283.7V8.3H283.25V8.75H282.8V9.2H282.35V10.1H281.9V10.55H281.45V11.45H281V11.9H280.55V12.35H280.1V13.25H279.65V13.7H279.2V14.15H278.75V15.05H278.3V15.5H277.85V16.4H277.4V16.85H276.95V17.3H276.5V18.2H276.05V18.65H275.6V19.1H275.15V20H274.7V20.45H274.25V21.35H273.8V21.8H273.35V22.25H272.9V23.15H272.45V23.6H272V24.5H271.55V24.95H271.1V25.4H270.65V26.3H270.2V26.75H269.75V27.2H269.3V28.1H268.85V28.55H268.4V29.45H267.95V29.9H267.5V30.35H267.05V31.25H266.6V31.7H266.15V32.6H265.7V33.05H265.25V33.5H264.8V34.4H264.35V34.85H263.9V25.4H263.45V15.95H263V16.4H262.55V16.85H262.1V17.75H261.65V18.2H261.2V18.65H260.75V19.55H260.3V20H259.85V20.9H259.4V21.35H258.95V21.8H258.5V22.7H258.05V23.15H257.6V23.6H257.15V24.5H256.7V24.95H256.25V25.85H255.8V26.3H255.35V26.75H254.9V27.65H254.45V28.1H254V28.55H253.55V29.45H253.1V29.9H252.65V30.8H252.2V31.25H251.75V31.7H251.3V32.6H250.85V33.05H250.4V33.5H249.95V34.4H249.5Z" fill="#68E9BA"/>
</svg>
